<svg version="1.1" xmlns="http://www.w3.org/2000/svg" xmlns:xlink="http://www.w3.org/1999/xlink" viewBox="0,0,790,790">
<g>
	<path d="M609.8,354.8c0.8-0.8,1.8-1.4,2.6-2.2c37.6-37.4,56.6-86.9,56.5-147.1c0-51-18.7-96.5-54-131.6c-50-49.6-130-74.2-234-73.9
		H0v652.2h160v137.6h220.8c199,0,288.1-127,288.1-259.3C668.9,459.1,648,399.4,609.8,354.8z M160,160h216.7
		c87.2,0.3,130,18.1,130,58.8c0,37.7-43.1,53.9-130.5,53.4H160V160z M380.8,629.8H160V424.2h220.4c0.1,0,0.2,0,0.3,0v0
		c112.8,0,128,53.7,128,106.3C508.9,578.7,486.7,629.8,380.8,629.8z"/>
</g>
</svg>
