<svg version="1.1" xmlns="http://www.w3.org/2000/svg" xmlns:xlink="http://www.w3.org/1999/xlink" viewBox="0,0,790,790">
<g>
	<path d="M677,338.5C677,151.9,525.2,0,338.5,0C151.9,0,0,151.9,0,338.5S151.9,677,338.5,677c35.9,0,70.4-5.7,102.8-16.1l33.4,55.3
		h186.8l-83.6-138.6C639.1,516.3,677,431.7,677,338.5z M338.5,517C240.1,517,160,436.9,160,338.5S240.1,160,338.5,160
		c98.4,0,178.5,80.1,178.5,178.5c0,34.4-10,66.5-26.9,93.8l-6.3-10.4l-189.2-0.8l59.2,95C348.8,516.6,343.7,517,338.5,517z"/>
</g>
</svg>
