<svg version="1.1" xmlns="http://www.w3.org/2000/svg" xmlns:xlink="http://www.w3.org/1999/xlink" viewBox="0,0,790,790">
<g>
	<path d="M535.4,245.9h-58.1v126.3h58.1c36.9,0,80.8,14.5,80.8,83.3c0,60.1-30.2,96-80.8,96c-78.4,0-101-20.4-101-90.9V256H308.1
		v204.6c0,70.5-22.7,90.9-101,90.9c-50.6,0-80.8-35.9-80.8-96c0-68.9,44-83.3,80.8-83.3h58.1V245.9h-58.1
		C107.3,245.9,0,311.5,0,455.5c0,130.9,85.2,222.3,207.1,222.3c77.6,0,129.5-20.3,164.2-50.9c34.6,30.6,86.6,50.9,164.2,50.9
		c121.9,0,207.1-91.4,207.1-222.3C742.5,311.5,635.2,245.9,535.4,245.9z"/>
</g>
</svg>
