<?xml version="1.0" encoding="utf-8"?>
<!-- Generator: Adobe Illustrator 24.0.2, SVG Export Plug-In . SVG Version: 6.00 Build 0)  -->
<svg version="1.1" id="Layer_1" xmlns="http://www.w3.org/2000/svg" xmlns:xlink="http://www.w3.org/1999/xlink" x="0px" y="0px"
	 viewBox="0 0 790 790" style="enable-background:new 0 0 790 790;" xml:space="preserve">
<g>
	<path d="M185.9,677.8V566.3c-15.9,0-28.1-2.8-32.5-7.3c-2-2-8.1-11-6.9-40.3v-2.4v-91.5c0-27.3-11.8-59-33-85.8
		c20.7-25.6,33-57.4,33-85.8v-90.7c1.2-29.7,4.9-40.7,7.7-44.8c2-3.3,13-6.5,31.7-6.5V0C40.7,0,36.6,116,35,159.5v2v90.7
		c-0.8,4.5-10.6,30.9-35,30.9v111.5c24.4,0,34.2,26.4,35,30.9v89.9c-2,52.9,10.6,92.4,37.8,120.8C99.3,664,137.5,677.8,185.9,677.8z
		"/>
</g>
</svg>
