<svg version="1.1" xmlns="http://www.w3.org/2000/svg" xmlns:xlink="http://www.w3.org/1999/xlink" viewBox="0,0,240,200">
<g>
	<path d="M43.8,166.6c-9.4,0-18.8-3.6-26.8-10.2C1.4,143.5-6.9,118.5,7.4,95.7c5.2-8,12-14.6,19.2-20.6c-1.8-1.9-3.2-3.5-4.2-4.5
		C11,57.9,7.8,37.7,14.7,22.4C20.9,8.4,33.8,0.4,50.1,0.4c33.3,0,45.2,20.6,45.2,39.9c0,16.6-9.5,28.7-21,38.9
		c3.3,3.7,6.7,7.6,10.2,11.5c1.8-2.3,4-5.1,4-5.1l25.2,20.8c-0.3,0.4-3,4-7.1,9.3c13.1,14.8,24.8,28.1,25.9,29.3l-24.6,21.6
		c-0.2-0.3-10.5-11.9-22.4-25.3c-4.2,4.7-8.4,9.2-12.3,13C64.6,162.3,54.2,166.6,43.8,166.6z M48.5,99.5c-5.6,4.5-8.9,8.1-12.5,12.4
		c-5,6-4.5,14.4-1.3,17.5c5.6,5.4,12.8,3.9,17-0.1c4-3.9,7.4-7.7,11.8-12.9C58.5,110.7,53.4,105,48.5,99.5z M52.6,31
		c-4.4,0-7.6,3.6-8,4.7c-1.6,3.6-1.6,9.3,1,12.2c1.3,1.4,4.3,4.1,6.9,6.9c5.8-5.1,10-10.1,10.1-14.5C62.5,36.5,60.7,31,52.6,31z"/>
</g>
</svg>
