<svg version="1.1" xmlns="http://www.w3.org/2000/svg" xmlns:xlink="http://www.w3.org/1999/xlink" viewBox="0,0,240,200">
<g>
	<path d="M56.2,149.7c-20.2,0-37.9-9.8-48-26.8C-3.7,103-2.6,77.1,11,55.3C22.8,36.3,45.3,25,71.1,25c23.3,0,42.5,9.3,51,23.7
		c12.1,20.4,2.3,46.1-13.8,58.3c-10.5,7.9-19.6,6.9-25.4,3c-7.2,4.1-16.3,6-24,5.4c-11.4-1-19.8-7.1-23.1-16.9
		c-3.6-10.7-0.3-22.3,8.4-30.5c10.3-9.6,25.6-12.1,39-6.6c14.6,6.1,13.5,20.9,13,28.8c0,0.1,0,0.2,0,0.4c2.5-2,5.6-5.3,8-10.2
		c2.2-4.5,5.2-13.1,0.3-21.3C99.8,51,85.4,45.5,71.2,45.3c-14.6,0-33.4,5.4-42.9,20.8c-9.7,15.5-10.7,32.9-2.6,46.4
		c6.9,11.5,18.9,17.6,33,16.8c28.2-2.1,49.3-9.9,52.6-16l17.9,9.8C117.9,143.7,80.8,149.7,56.2,149.7z M68.8,78.9
		c-4.6,0-8.3,1.9-10.6,4c-1.4,1.3-4.4,4.8-3,9.1c0.3,0.7,0.8,2.5,5,3c6.5,0.8,14.7-2.5,15.7-4.3c0.6-1.7,1.4-7.2-0.1-10.5
		C73.3,79.3,71,78.9,68.8,78.9z"/>
</g>
</svg>
