<?xml version="1.0" encoding="utf-8"?>
<!-- Generator: Adobe Illustrator 24.0.2, SVG Export Plug-In . SVG Version: 6.00 Build 0)  -->
<svg version="1.1" id="Layer_1" xmlns="http://www.w3.org/2000/svg" xmlns:xlink="http://www.w3.org/1999/xlink" x="0px" y="0px"
	 viewBox="0 0 790 790" style="enable-background:new 0 0 790 790;" xml:space="preserve">
<g>
	<polygon points="137.9,677.7 36.3,677.7 355.5,0.1 457.6,0.1 	"/>
	<path d="M418.2,677.7c-1.2,0-2.4,0-3.7,0h-47.2c-46,2.8-88.7-37-91.5-86.2L274.6,482c-2.8-46,37-89.1,86.2-91.9h50.8
		c20.7-1.2,45.1,7.7,63,25.2c16.7,16.3,27.2,38.6,28.5,61.4l1.2,109c0,27.7-10.2,52.1-28.5,69.1
		C460.5,669.5,439.7,677.7,418.2,677.7z M368.1,585.3h43.9L410.8,482h-43.9L368.1,585.3z"/>
	<path d="M85.5,286.8c-19.9-0.4-41.5-9.8-57.8-25.6c-16.3-16.7-26.4-39-27.7-61.8V91.2c-2-46,37.8-88.7,87.4-91.1h50.8
		c45.6-2.4,88.3,38.2,90.3,87.8v108.2c2,46.4-34.6,86.2-85.4,90.7h-4.9L89.9,286C89.1,286.8,87.5,286.8,85.5,286.8z M92.4,92.4
		v102.1l43.9,0.4V92.8L92.4,92.4z"/>
</g>
</svg>
