<?xml version="1.0" encoding="utf-8"?>
<!-- Generator: Adobe Illustrator 24.0.2, SVG Export Plug-In . SVG Version: 6.00 Build 0)  -->
<svg version="1.1" id="Layer_1" xmlns="http://www.w3.org/2000/svg" xmlns:xlink="http://www.w3.org/1999/xlink" x="0px" y="0px"
	 viewBox="0 0 790 790" style="enable-background:new 0 0 790 790;" xml:space="preserve">
<g>
	<path d="M167.7,565c-60.1,0-112.8-29.2-142.9-79.8C-10.7,426-7.4,348.9,33.1,284c35.1-56.6,102.1-90.2,178.9-90.2
		c69.4,0,126.5,27.7,151.8,70.6c36,60.7,6.8,137.2-41.1,173.6c-31.3,23.5-58.4,20.5-75.6,8.9c-21.4,12.2-48.5,17.9-71.5,16.1
		c-33.9-3-58.9-21.1-68.8-50.3c-10.7-31.9-0.9-66.4,25-90.8c30.7-28.6,76.2-36,116.1-19.6c43.5,18.2,40.2,62.2,38.7,85.7
		c0,0.3,0,0.6,0,1.2c7.4-6,16.7-15.8,23.8-30.4c6.5-13.4,15.5-39,0.9-63.4c-14-24.1-56.9-40.5-99.1-41.1
		c-43.5,0-99.4,16.1-127.7,61.9c-28.9,46.1-31.9,97.9-7.7,138.1c20.5,34.2,56.3,52.4,98.2,50c84-6.3,146.8-29.5,156.6-47.6
		l53.3,29.2C351.4,547.2,240.9,565,167.7,565z M205.2,354.3c-13.7,0-24.7,5.7-31.6,11.9c-4.2,3.9-13.1,14.3-8.9,27.1
		c0.9,2.1,2.4,7.4,14.9,8.9c19.4,2.4,43.8-7.4,46.7-12.8c1.8-5.1,4.2-21.4-0.3-31.3C218.6,355.5,211.7,354.3,205.2,354.3z"/>
</g>
</svg>
