<?xml version="1.0" encoding="utf-8"?>
<!-- Generator: Adobe Illustrator 24.0.2, SVG Export Plug-In . SVG Version: 6.00 Build 0)  -->
<svg version="1.1" id="Layer_1" xmlns="http://www.w3.org/2000/svg" xmlns:xlink="http://www.w3.org/1999/xlink" x="0px" y="0px"
	 viewBox="0 0 790 790" style="enable-background:new 0 0 790 790;" xml:space="preserve">
<g>
	<path d="M228.1,288V136.5c19.1,11,33,27.3,38.7,44.8l93.7-0.8C349.8,92.9,287.1,51.3,228.1,43.6V0.4h-95.7v37.1c-0.4,0-0.8,0-1.2,0
		C57.4,43.2,4.8,95.3,0.4,167.8c-4.5,67.6,35.8,147.5,132.4,184.5l0.4,158c-25.3-6.5-39.5-33-38.3-63.5L0.4,446
		c0,35.4,4.9,79,33.8,109.6c27.7,28.9,61.9,48.1,99.4,56.6l0.4,65.6h95.3l0.4-66.8c89.6-19.6,128.7-82.7,131.6-138.9
		C364.1,400,314.4,316.9,228.1,288z M95.7,173.1c0.8-9.8,5.7-40.7,36.7-47.3v124.6C105.4,228.5,94,199.6,95.7,173.1z M228.5,511.2
		v-121c22.8,17.1,37.9,43.2,36.7,70.1C263.5,483.5,249.6,501,228.5,511.2z"/>
</g>
</svg>
