<svg version="1.1" xmlns="http://www.w3.org/2000/svg" xmlns:xlink="http://www.w3.org/1999/xlink" viewBox="0,0,240,200">
<g>
	<path d="M56,71l0-37.2c4.7,2.7,8.1,6.7,9.5,11l23-0.2C85.9,23.1,70.5,12.9,56,11l0-10.6l-23.5,0l0,9.1c-0.1,0-0.2,0-0.3,0
		c-18.1,1.4-31,14.2-32.1,32C-1,58.1,8.9,77.7,32.6,86.8l0.1,38.8c-6.2-1.6-9.7-8.1-9.4-15.6c0,0-23.2-0.2-23.2-0.2
		c0,8.7,1.2,19.4,8.3,26.9c6.8,7.1,15.2,11.8,24.4,13.9l0.1,16.1h23.4l0.1-16.4c22-4.8,31.6-20.3,32.3-34.1
		C89.4,98.5,77.2,78.1,56,71z M23.5,42.8c0.2-2.4,1.4-10,9-11.6l0,30.6C25.9,56.4,23.1,49.3,23.5,42.8z M56.1,125.8l0-29.7
		c5.6,4.2,9.3,10.6,9,17.2C64.7,119,61.3,123.3,56.1,125.8z"/>
</g>
</svg>
