<svg version="1.1" xmlns="http://www.w3.org/2000/svg" xmlns:xlink="http://www.w3.org/1999/xlink" viewBox="0,0,240,200">
<g>
	<g>
		<polygon points="33.9,166.6 8.9,166.6 87.4,0 112.5,0 		"/>
		<path d="M102.8,166.6c-0.3,0-0.6,0-0.9,0l-11.6,0c-11.3,0.7-21.8-9.1-22.5-21.2l-0.3-26.9c-0.7-11.3,9.1-21.9,21.2-22.6l12.5,0
			c5.1-0.3,11.1,1.9,15.5,6.2c4.1,4,6.7,9.5,7,15.1L124,144c0,6.8-2.5,12.8-7,17C113.2,164.6,108.1,166.6,102.8,166.6z M90.5,143.9
			l10.8,0l-0.3-25.4l-10.8,0L90.5,143.9z"/>
		<path d="M21,70.5c-4.9-0.1-10.2-2.4-14.2-6.3C2.8,60.1,0.3,54.6,0,49l0-26.6C-0.5,11.1,9.3,0.6,21.5,0H34
			c11.2-0.6,21.7,9.4,22.2,21.6l0,26.6c0.5,11.4-8.5,21.2-21,22.3l-1.2,0l-11.9-0.2C21.9,70.5,21.5,70.5,21,70.5z M22.7,22.7l0,25.1
			l10.8,0.1l0-25.1L22.7,22.7z"/>
	</g>
</g>
</svg>
