<?xml version="1.0" encoding="utf-8"?>
<!-- Generator: Adobe Illustrator 24.0.2, SVG Export Plug-In . SVG Version: 6.00 Build 0)  -->
<svg version="1.1" id="Layer_1" xmlns="http://www.w3.org/2000/svg" xmlns:xlink="http://www.w3.org/1999/xlink" x="0px" y="0px"
	 viewBox="0 0 790 790" style="enable-background:new 0 0 790 790;" xml:space="preserve">
<g>
	<path d="M169.6,677.8c-36.3,0-72.6-13.9-103.5-39.4C5.9,588.6-26.2,492.1,29.1,404c20.1-30.9,46.3-56.4,74.1-79.5
		c-7-7.3-12.4-13.5-16.2-17.4C43,258,30.6,180,57.3,121C81.2,66.9,131,36,194,36c128.6,0,174.5,79.5,174.5,154.1
		c0,64.1-36.7,110.8-81.1,150.2c12.7,14.3,25.9,29.3,39.4,44.4c7-8.9,15.4-19.7,15.4-19.7l97.3,80.3c-1.2,1.5-11.6,15.4-27.4,35.9
		c50.6,57.2,95.8,108.5,100,113.1l-95,83.4c-0.8-1.2-40.5-46-86.5-97.7c-16.2,18.1-32.4,35.5-47.5,50.2
		C249.9,661.2,209.8,677.8,169.6,677.8z M187.8,418.7c-21.6,17.4-34.4,31.3-48.3,47.9c-19.3,23.2-17.4,55.6-5,67.6
		c21.6,20.9,49.4,15.1,65.6-0.4c15.4-15.1,28.6-29.7,45.6-49.8C226.4,461.9,206.7,439.9,187.8,418.7z M203.6,154.2
		c-17,0-29.3,13.9-30.9,18.1c-6.2,13.9-6.2,35.9,3.9,47.1c5,5.4,16.6,15.8,26.6,26.6c22.4-19.7,38.6-39,39-56
		C241.8,175.4,234.9,154.2,203.6,154.2z"/>
</g>
</svg>
