<?xml version="1.0" encoding="utf-8"?>
<!-- Generator: Adobe Illustrator 24.0.2, SVG Export Plug-In . SVG Version: 6.00 Build 0)  -->
<svg version="1.1" id="Layer_1" xmlns="http://www.w3.org/2000/svg" xmlns:xlink="http://www.w3.org/1999/xlink" x="0px" y="0px"
	 viewBox="0 0 790 790" style="enable-background:new 0 0 790 790;" xml:space="preserve">
<g>
	<path d="M0,677.2V565.8c15.9,0,28-2.8,32.5-7.3c2-2,8.1-11,6.9-40.2v-2.4v-91.5c0-27.2,11.8-58.9,32.9-85.8
		c-20.7-25.6-32.9-57.3-32.9-85.8v-90.6c-1.2-29.7-4.9-40.6-7.7-44.7c-2-3.3-13-6.5-31.7-6.5V0c145.1,0,149.2,115.8,150.8,159.3v2
		V252c0.8,4.5,10.6,30.9,35,30.9v111.4c-24.4,0-34.1,26.4-35,30.9V515c2,52.8-10.6,92.3-37.8,120.7C86.6,663.4,48.4,677.2,0,677.2z"
		/>
</g>
</svg>
